<svg xmlns="http://www.w3.org/2000/svg" xmlns:xlink="http://www.w3.org/1999/xlink" width="343" zoomAndPan="magnify" viewBox="0 0 257.25 217.499992" height="290" preserveAspectRatio="xMidYMid meet" version="1.0"><defs><g/><clipPath id="cd26b02b9f"><path d="M 130.011719 81 L 159 81 L 159 105.535156 L 130.011719 105.535156 Z M 130.011719 81 " clip-rule="nonzero"/></clipPath></defs><g fill="#ffffff" fill-opacity="1"><g transform="translate(75.34113, 102.844089)"><g><path d="M 8.921875 0.453125 C 7.484375 0.453125 6.140625 0.128906 4.890625 -0.515625 C 4.328125 -0.796875 3.859375 -1.128906 3.484375 -1.515625 C 3.191406 -1.046875 2.835938 -0.628906 2.421875 -0.265625 C 2.054688 -0.00390625 1.851562 0.132812 1.8125 0.15625 L 1.0625 0.15625 L 1.0625 -5.59375 L 2.265625 -5.59375 C 2.566406 -4.601562 2.988281 -3.71875 3.53125 -2.9375 C 4.757812 -1.175781 6.351562 -0.296875 8.3125 -0.296875 C 9.457031 -0.296875 10.375 -0.640625 11.0625 -1.328125 C 11.75 -2.015625 12.09375 -2.929688 12.09375 -4.078125 C 12.09375 -4.742188 11.894531 -5.335938 11.5 -5.859375 C 11.113281 -6.390625 10.625 -6.851562 10.03125 -7.25 C 9.445312 -7.65625 8.632812 -8.160156 7.59375 -8.765625 C 6.257812 -9.515625 5.175781 -10.191406 4.34375 -10.796875 C 3.519531 -11.398438 2.816406 -12.160156 2.234375 -13.078125 C 1.648438 -13.992188 1.359375 -15.078125 1.359375 -16.328125 C 1.359375 -17.316406 1.632812 -18.207031 2.1875 -19 C 2.738281 -19.800781 3.566406 -20.4375 4.671875 -20.90625 C 5.785156 -21.382812 7.148438 -21.625 8.765625 -21.625 C 9.929688 -21.625 11.101562 -21.289062 12.28125 -20.625 C 12.71875 -20.375 13.160156 -20.050781 13.609375 -19.65625 C 13.953125 -20.175781 14.300781 -20.585938 14.65625 -20.890625 C 15.019531 -21.148438 15.222656 -21.289062 15.265625 -21.3125 L 16.03125 -21.3125 L 16.03125 -15.578125 L 14.8125 -15.578125 C 14.550781 -16.535156 14.160156 -17.410156 13.640625 -18.203125 C 13.148438 -18.960938 12.546875 -19.59375 11.828125 -20.09375 C 11.117188 -20.601562 10.300781 -20.859375 9.375 -20.859375 C 8.582031 -20.859375 7.90625 -20.546875 7.34375 -19.921875 C 6.78125 -19.296875 6.5 -18.5 6.5 -17.53125 C 6.5 -16.789062 6.710938 -16.125 7.140625 -15.53125 C 7.578125 -14.9375 8.113281 -14.414062 8.75 -13.96875 C 9.382812 -13.519531 10.25 -12.984375 11.34375 -12.359375 C 12.613281 -11.640625 13.640625 -10.992188 14.421875 -10.421875 C 15.203125 -9.859375 15.863281 -9.160156 16.40625 -8.328125 C 16.957031 -7.492188 17.234375 -6.53125 17.234375 -5.4375 C 17.234375 -4.351562 16.921875 -3.363281 16.296875 -2.46875 C 15.671875 -1.570312 14.734375 -0.859375 13.484375 -0.328125 C 12.234375 0.191406 10.710938 0.453125 8.921875 0.453125 Z M 8.921875 0.453125 "/></g></g></g><g fill="#ffffff" fill-opacity="1"><g transform="translate(93.333005, 102.844089)"><g><path d="M 9.21875 0.453125 C 6.71875 0.453125 4.753906 -0.253906 3.328125 -1.671875 C 1.910156 -3.097656 1.203125 -5.0625 1.203125 -7.5625 C 1.203125 -10.0625 1.910156 -12.019531 3.328125 -13.4375 C 4.753906 -14.863281 6.71875 -15.578125 9.21875 -15.578125 C 11.71875 -15.578125 13.675781 -14.863281 15.09375 -13.4375 C 16.519531 -12.019531 17.234375 -10.0625 17.234375 -7.5625 C 17.234375 -5.0625 16.519531 -3.097656 15.09375 -1.671875 C 13.675781 -0.253906 11.71875 0.453125 9.21875 0.453125 Z M 9.21875 -0.15625 C 10.03125 -0.15625 10.710938 -0.71875 11.265625 -1.84375 C 11.816406 -2.96875 12.09375 -4.875 12.09375 -7.5625 C 12.09375 -10.238281 11.816406 -12.140625 11.265625 -13.265625 C 10.710938 -14.398438 10.03125 -14.96875 9.21875 -14.96875 C 8.414062 -14.96875 7.734375 -14.398438 7.171875 -13.265625 C 6.617188 -12.140625 6.34375 -10.238281 6.34375 -7.5625 C 6.34375 -4.875 6.617188 -2.96875 7.171875 -1.84375 C 7.734375 -0.71875 8.414062 -0.15625 9.21875 -0.15625 Z M 9.21875 -0.15625 "/></g></g></g><g fill="#ffffff" fill-opacity="1"><g transform="translate(111.778455, 102.844089)"><g><path d="M 4.53125 6.5 C 3.625 6.5 2.914062 6.253906 2.40625 5.765625 C 1.90625 5.285156 1.65625 4.625 1.65625 3.78125 C 1.65625 3.007812 1.863281 2.410156 2.28125 1.984375 C 2.695312 1.566406 3.25 1.359375 3.9375 1.359375 C 4.09375 1.359375 4.25 1.375 4.40625 1.40625 C 4.570312 1.4375 4.6875 1.453125 4.75 1.453125 L 5.140625 1.515625 L 5.140625 5.59375 C 5.722656 5.488281 6.234375 5.164062 6.671875 4.625 C 7.117188 4.082031 7.613281 3.144531 8.15625 1.8125 L 8.765625 0.296875 L 0.90625 -14.203125 L -0.609375 -14.65625 L -0.609375 -15.109375 L 3.171875 -15.109375 C 4.222656 -15.109375 5.054688 -14.890625 5.671875 -14.453125 C 6.285156 -14.023438 6.8125 -13.390625 7.25 -12.546875 L 11.03125 -5.5625 L 14.203125 -13.75 L 11.9375 -14.65625 L 11.9375 -15.109375 L 17.53125 -15.109375 L 17.53125 -14.65625 L 15.109375 -13.75 L 9.0625 1.8125 C 8.425781 3.46875 7.742188 4.660156 7.015625 5.390625 C 6.285156 6.128906 5.457031 6.5 4.53125 6.5 Z M 4.53125 6.5 "/></g></g></g><g clip-path="url(#cd26b02b9f)"><path fill="#ffffff" d="M 157.375 85.703125 C 156.59375 84.355469 155.535156 83.304688 154.195312 82.546875 C 153.59375 82.214844 152.960938 81.964844 152.292969 81.800781 C 151.636719 81.617188 150.96875 81.519531 150.289062 81.507812 C 149.609375 81.492188 148.9375 81.5625 148.273438 81.714844 C 147.609375 81.867188 146.972656 82.097656 146.367188 82.410156 C 145.757812 82.71875 145.195312 83.101562 144.679688 83.554688 C 144.644531 83.582031 144.605469 83.605469 144.570312 83.628906 C 144.554688 83.636719 144.539062 83.644531 144.523438 83.648438 C 141.875 81.472656 138.910156 80.84375 135.71875 82.148438 C 134.457031 82.660156 133.363281 83.429688 132.441406 84.449219 C 130.167969 87.0625 130.332031 90.375 130.386719 91.132812 C 130.523438 92.140625 130.808594 93.097656 131.242188 94.007812 C 131.703125 94.929688 132.292969 95.757812 133.019531 96.484375 C 133.105469 96.5625 133.167969 96.660156 133.203125 96.777344 C 133.242188 97.023438 133.316406 97.253906 133.4375 97.472656 C 133.554688 97.6875 133.703125 97.878906 133.886719 98.042969 C 134.070312 98.207031 134.273438 98.332031 134.503906 98.421875 C 134.730469 98.511719 134.964844 98.5625 135.207031 98.566406 C 135.246094 98.574219 135.285156 98.582031 135.320312 98.589844 C 135.433594 99.921875 136.140625 100.671875 137.496094 100.792969 C 137.511719 100.902344 137.527344 101.019531 137.542969 101.136719 C 137.566406 101.367188 137.628906 101.589844 137.730469 101.800781 C 137.828125 102.011719 137.960938 102.199219 138.125 102.363281 C 138.289062 102.527344 138.472656 102.660156 138.679688 102.761719 C 138.886719 102.859375 139.105469 102.921875 139.335938 102.945312 C 139.597656 102.972656 139.6875 103.054688 139.71875 103.335938 C 139.746094 103.730469 139.882812 104.082031 140.121094 104.390625 C 140.359375 104.703125 140.660156 104.917969 141.027344 105.042969 C 141.410156 105.199219 141.804688 105.234375 142.210938 105.144531 C 142.617188 105.054688 142.960938 104.855469 143.246094 104.550781 C 143.496094 104.304688 143.71875 104.035156 144.042969 103.683594 C 144.417969 104.109375 144.734375 104.5 145.085938 104.855469 C 145.542969 105.335938 146.09375 105.53125 146.746094 105.445312 C 147.214844 105.398438 147.621094 105.210938 147.960938 104.878906 C 148.300781 104.546875 148.507812 104.140625 148.574219 103.664062 C 148.59375 103.535156 148.609375 103.402344 148.621094 103.324219 C 148.996094 103.230469 149.363281 103.109375 149.71875 102.957031 C 150.03125 102.796875 150.28125 102.566406 150.472656 102.265625 C 150.664062 101.964844 150.765625 101.636719 150.785156 101.28125 C 150.808594 101.164062 150.875 101.078125 150.984375 101.03125 C 152.242188 100.816406 152.777344 100.265625 152.960938 98.957031 C 152.96875 98.921875 152.980469 98.890625 152.992188 98.855469 C 153.226562 98.835938 153.457031 98.785156 153.683594 98.707031 L 153.742188 98.679688 C 153.878906 98.628906 154.007812 98.5625 154.132812 98.488281 C 154.152344 98.476562 154.171875 98.460938 154.191406 98.449219 C 154.214844 98.4375 154.234375 98.425781 154.253906 98.414062 C 154.265625 98.40625 154.277344 98.394531 154.289062 98.386719 C 154.332031 98.355469 154.375 98.324219 154.414062 98.289062 C 154.535156 98.191406 154.648438 98.082031 154.75 97.957031 C 154.847656 97.832031 154.933594 97.699219 155.007812 97.558594 C 155.425781 97.082031 155.890625 96.652344 156.316406 96.1875 C 156.925781 95.558594 157.414062 94.851562 157.792969 94.058594 C 158.210938 93.191406 158.496094 92.277344 158.644531 91.320312 C 159.039062 88.5625 157.484375 85.882812 157.375 85.703125 Z M 135.902344 97.191406 C 135.714844 97.371094 135.492188 97.457031 135.234375 97.449219 C 134.976562 97.441406 134.757812 97.347656 134.578125 97.160156 C 134.484375 97.074219 134.414062 96.96875 134.359375 96.851562 C 134.308594 96.734375 134.28125 96.613281 134.277344 96.484375 C 134.273438 96.355469 134.292969 96.230469 134.339844 96.109375 C 134.386719 95.988281 134.453125 95.882812 134.539062 95.789062 C 134.863281 95.417969 135.207031 95.070312 135.574219 94.742188 C 135.757812 94.613281 135.957031 94.515625 136.164062 94.441406 C 136.605469 94.453125 136.917969 94.664062 137.101562 95.066406 C 137.191406 95.238281 137.222656 95.421875 137.195312 95.617188 C 137.171875 95.808594 137.089844 95.976562 136.957031 96.117188 C 136.621094 96.492188 136.273438 96.851562 135.902344 97.191406 Z M 138.0625 99.40625 C 137.917969 99.542969 137.75 99.625 137.554688 99.652344 C 137.359375 99.675781 137.175781 99.640625 137.003906 99.542969 C 136.632812 99.367188 136.464844 99.050781 136.449219 98.507812 C 136.515625 98.324219 136.605469 98.148438 136.71875 97.988281 C 137.027344 97.632812 137.351562 97.296875 137.695312 96.976562 C 137.886719 96.789062 138.109375 96.695312 138.371094 96.695312 C 138.632812 96.691406 138.859375 96.78125 139.050781 96.960938 C 139.148438 97.046875 139.222656 97.152344 139.277344 97.269531 C 139.332031 97.390625 139.363281 97.515625 139.367188 97.648438 C 139.371094 97.78125 139.351562 97.910156 139.300781 98.03125 C 139.253906 98.15625 139.1875 98.261719 139.097656 98.359375 C 138.769531 98.726562 138.421875 99.074219 138.0625 99.40625 Z M 140.304688 101.550781 C 140.210938 101.648438 140.105469 101.722656 139.984375 101.773438 C 139.863281 101.828125 139.738281 101.855469 139.605469 101.855469 C 139.476562 101.859375 139.347656 101.835938 139.226562 101.785156 C 139.105469 101.734375 138.996094 101.660156 138.902344 101.566406 C 138.808594 101.472656 138.738281 101.363281 138.6875 101.238281 C 138.640625 101.113281 138.617188 100.984375 138.617188 100.847656 C 138.621094 100.714844 138.648438 100.585938 138.699219 100.460938 C 138.753906 100.339844 138.828125 100.230469 138.921875 100.140625 C 139.230469 99.816406 139.539062 99.488281 139.867188 99.183594 C 140.003906 99.035156 140.175781 98.941406 140.375 98.90625 C 140.574219 98.867188 140.761719 98.894531 140.945312 98.984375 C 141.332031 99.164062 141.5 99.488281 141.539062 100.03125 C 141.453125 100.238281 141.347656 100.429688 141.21875 100.613281 C 140.929688 100.941406 140.625 101.253906 140.304688 101.550781 Z M 143.421875 102.78125 C 143.109375 103.132812 142.78125 103.464844 142.429688 103.78125 C 142.261719 103.902344 142.082031 104 141.890625 104.070312 C 141.683594 104.085938 141.492188 104.046875 141.3125 103.945312 C 141.132812 103.847656 140.992188 103.703125 140.898438 103.519531 C 140.800781 103.355469 140.761719 103.179688 140.777344 102.992188 C 140.792969 102.800781 140.859375 102.636719 140.980469 102.492188 C 141.335938 102.074219 141.714844 101.683594 142.125 101.320312 C 142.320312 101.148438 142.546875 101.074219 142.804688 101.097656 C 143.058594 101.117188 143.273438 101.226562 143.4375 101.429688 C 143.613281 101.621094 143.695312 101.847656 143.695312 102.109375 C 143.691406 102.371094 143.601562 102.59375 143.421875 102.78125 Z M 153.730469 97.421875 C 153.636719 97.515625 153.527344 97.585938 153.40625 97.636719 L 153.378906 97.648438 C 153.175781 97.707031 152.972656 97.710938 152.773438 97.648438 C 152.570312 97.589844 152.398438 97.476562 152.261719 97.3125 C 150.855469 95.890625 149.453125 94.460938 148.050781 93.03125 C 148.003906 92.984375 147.960938 92.933594 147.914062 92.890625 C 147.800781 92.773438 147.667969 92.714844 147.507812 92.710938 C 147.347656 92.710938 147.207031 92.769531 147.09375 92.882812 C 146.992188 93 146.941406 93.140625 146.953125 93.296875 C 146.960938 93.457031 147.027344 93.585938 147.144531 93.691406 C 147.527344 94.09375 147.925781 94.488281 148.316406 94.886719 C 149.402344 95.992188 150.492188 97.097656 151.574219 98.214844 C 151.730469 98.371094 151.824219 98.5625 151.851562 98.78125 C 151.882812 99.003906 151.84375 99.210938 151.734375 99.40625 C 151.632812 99.597656 151.484375 99.738281 151.285156 99.824219 C 151.089844 99.910156 150.886719 99.929688 150.679688 99.875 C 150.472656 99.8125 150.289062 99.703125 150.132812 99.550781 C 148.714844 98.121094 147.304688 96.683594 145.894531 95.25 C 145.835938 95.183594 145.773438 95.125 145.707031 95.070312 C 145.597656 94.964844 145.46875 94.914062 145.320312 94.917969 C 145.171875 94.917969 145.046875 94.972656 144.941406 95.082031 C 144.832031 95.1875 144.777344 95.316406 144.78125 95.46875 C 144.78125 95.621094 144.835938 95.75 144.945312 95.851562 C 145.410156 96.351562 145.890625 96.828125 146.363281 97.3125 C 147.359375 98.328125 148.359375 99.339844 149.351562 100.359375 C 149.550781 100.539062 149.664062 100.765625 149.683594 101.039062 C 149.707031 101.3125 149.632812 101.550781 149.464844 101.765625 C 149.375 101.871094 149.269531 101.957031 149.144531 102.019531 C 149.023438 102.078125 148.890625 102.113281 148.753906 102.117188 C 148.617188 102.125 148.484375 102.097656 148.355469 102.046875 C 148.226562 101.996094 148.117188 101.917969 148.019531 101.816406 C 147.3125 101.117188 146.621094 100.398438 145.921875 99.695312 C 145.621094 99.390625 145.3125 99.09375 145.007812 98.800781 C 144.96875 98.761719 144.921875 98.722656 144.878906 98.691406 L 143.179688 96.957031 C 143.074219 96.851562 142.949219 96.796875 142.804688 96.796875 C 142.65625 96.796875 142.53125 96.851562 142.429688 96.957031 C 142.324219 97.0625 142.273438 97.191406 142.273438 97.339844 C 142.273438 97.488281 142.324219 97.617188 142.429688 97.722656 L 144.117188 99.449219 C 144.152344 99.5 144.191406 99.546875 144.234375 99.59375 C 145.207031 100.585938 146.179688 101.574219 147.152344 102.566406 C 147.269531 102.664062 147.355469 102.78125 147.417969 102.917969 C 147.480469 103.058594 147.511719 103.203125 147.507812 103.355469 C 147.507812 103.507812 147.472656 103.652344 147.40625 103.785156 C 147.339844 103.921875 147.246094 104.035156 147.128906 104.128906 C 146.957031 104.273438 146.761719 104.34375 146.542969 104.347656 C 146.324219 104.347656 146.128906 104.28125 145.953125 104.140625 C 145.542969 103.769531 145.15625 103.363281 144.773438 102.960938 C 144.710938 102.878906 144.691406 102.792969 144.714844 102.695312 C 144.757812 102.539062 144.785156 102.378906 144.792969 102.214844 C 144.800781 102.054688 144.789062 101.894531 144.761719 101.734375 C 144.734375 101.574219 144.6875 101.417969 144.625 101.269531 C 144.5625 101.121094 144.484375 100.980469 144.390625 100.847656 C 144.296875 100.71875 144.1875 100.601562 144.066406 100.492188 C 143.949219 100.386719 143.816406 100.296875 143.675781 100.222656 C 143.535156 100.144531 143.386719 100.089844 143.234375 100.046875 C 143.078125 100.007812 142.921875 99.984375 142.765625 99.980469 C 142.722656 99.972656 142.6875 99.964844 142.648438 99.949219 C 142.542969 98.613281 141.820312 97.878906 140.484375 97.753906 C 140.367188 96.414062 139.65625 95.667969 138.355469 95.550781 C 138.292969 95.230469 138.207031 94.914062 138.089844 94.605469 C 138.023438 94.453125 137.941406 94.308594 137.839844 94.175781 C 137.738281 94.042969 137.625 93.925781 137.496094 93.820312 C 137.367188 93.714844 137.226562 93.628906 137.078125 93.554688 C 136.929688 93.484375 136.773438 93.433594 136.609375 93.402344 C 136.449219 93.367188 136.285156 93.355469 136.121094 93.363281 C 135.957031 93.371094 135.796875 93.398438 135.636719 93.445312 C 135.480469 93.492188 135.328125 93.558594 135.1875 93.640625 C 135.042969 93.726562 134.914062 93.824219 134.792969 93.941406 C 134.332031 94.359375 133.882812 94.789062 133.390625 95.246094 C 132.671875 94.476562 132.148438 93.585938 131.820312 92.578125 C 131.492188 91.570312 131.390625 90.535156 131.511719 89.480469 C 131.867188 86.238281 133.621094 84.039062 136.636719 82.988281 C 137.238281 82.785156 137.859375 82.664062 138.492188 82.625 C 139.125 82.585938 139.75 82.632812 140.371094 82.761719 C 140.992188 82.894531 141.585938 83.105469 142.152344 83.398438 C 142.71875 83.691406 143.238281 84.054688 143.710938 84.488281 C 142.851562 85.363281 142.007812 86.222656 141.167969 87.082031 C 140.832031 87.425781 140.484375 87.761719 140.175781 88.132812 C 139.992188 88.363281 139.851562 88.621094 139.761719 88.90625 C 139.667969 89.1875 139.632812 89.480469 139.648438 89.777344 C 139.664062 90.078125 139.730469 90.363281 139.851562 90.636719 C 139.972656 90.90625 140.140625 91.148438 140.347656 91.355469 C 140.558594 91.566406 140.796875 91.730469 141.066406 91.847656 C 141.335938 91.964844 141.613281 92.03125 141.90625 92.042969 C 142.199219 92.054688 142.484375 92.011719 142.761719 91.917969 C 143.039062 91.820312 143.289062 91.679688 143.515625 91.488281 C 143.90625 91.140625 145.457031 89.582031 146.460938 88.589844 C 148.488281 90.648438 152.074219 94.300781 153.664062 95.925781 C 153.773438 96.015625 153.863281 96.121094 153.925781 96.25 C 153.992188 96.378906 154.027344 96.511719 154.03125 96.65625 C 154.039062 96.800781 154.015625 96.9375 153.964844 97.070312 C 153.910156 97.207031 153.832031 97.320312 153.730469 97.421875 Z M 157.582031 90.691406 C 157.46875 91.964844 157.074219 93.148438 156.410156 94.230469 C 156.214844 94.53125 156.003906 94.820312 155.78125 95.097656 C 155.558594 95.375 155.328125 95.640625 155.121094 95.90625 C 154.816406 95.582031 154.527344 95.265625 154.242188 94.960938 C 154.242188 94.960938 153.832031 94.527344 153.386719 94.0625 C 152.746094 93.394531 150.089844 90.683594 146.460938 87.011719 C 145.765625 87.722656 143.359375 90.113281 142.882812 90.574219 C 142.664062 90.789062 142.402344 90.90625 142.097656 90.929688 C 141.792969 90.949219 141.519531 90.867188 141.273438 90.679688 C 141.117188 90.570312 140.996094 90.429688 140.902344 90.257812 C 140.808594 90.089844 140.753906 89.90625 140.742188 89.714844 C 140.730469 89.519531 140.757812 89.332031 140.828125 89.152344 C 140.898438 88.972656 141.003906 88.816406 141.144531 88.683594 C 142.167969 87.632812 143.203125 86.597656 144.222656 85.546875 C 144.898438 84.773438 145.675781 84.121094 146.546875 83.59375 C 147.648438 82.980469 148.828125 82.660156 150.082031 82.628906 C 151.308594 82.664062 152.480469 82.949219 153.59375 83.480469 C 154.003906 83.667969 154.382812 83.902344 154.738281 84.179688 C 155.007812 84.398438 155.261719 84.640625 155.5 84.898438 C 155.734375 85.148438 155.953125 85.421875 156.148438 85.707031 C 156.363281 86.035156 156.558594 86.375 156.734375 86.726562 C 157.382812 87.964844 157.667969 89.289062 157.582031 90.691406 Z M 157.582031 90.691406 " fill-opacity="1" fill-rule="nonzero"/></g><g fill="#ffffff" fill-opacity="1"><g transform="translate(75.34113, 139.101798)"><g><path d="M 2.777344 -1.53125 L 2.777344 -6.195312 L 2.140625 -6.195312 L 2.140625 -1.53125 C 2.140625 -1.136719 1.984375 -0.867188 1.695312 -0.703125 C 1.449219 -0.554688 1.148438 -0.511719 0.792969 -0.554688 C 0.464844 -0.59375 0.210938 -0.683594 0.046875 -0.828125 L 0.046875 -0.128906 C 0.101562 -0.0742188 0.210938 -0.0273438 0.375 0.0195312 C 0.539062 0.0625 0.71875 0.0898438 0.917969 0.0898438 C 1.410156 0.109375 1.820312 0.0078125 2.148438 -0.21875 C 2.570312 -0.492188 2.777344 -0.929688 2.777344 -1.53125 Z M 2.777344 -1.53125 "/></g></g></g><g fill="#ffffff" fill-opacity="1"><g transform="translate(80.068166, 139.101798)"><g><path d="M 5.164062 -2.050781 L 5.164062 -6.195312 L 4.527344 -6.195312 L 4.527344 -1.957031 C 4.527344 -1.703125 4.480469 -1.492188 4.390625 -1.320312 C 4.125 -0.8125 3.617188 -0.554688 2.859375 -0.554688 C 2.367188 -0.554688 1.976562 -0.664062 1.683594 -0.882812 C 1.347656 -1.128906 1.183594 -1.484375 1.183594 -1.957031 L 1.183594 -6.195312 L 0.546875 -6.195312 L 0.546875 -2.050781 C 0.546875 -1.375 0.765625 -0.847656 1.203125 -0.464844 C 1.613281 -0.101562 2.167969 0.0820312 2.859375 0.0820312 C 3.542969 0.0820312 4.089844 -0.101562 4.507812 -0.464844 C 4.945312 -0.847656 5.164062 -1.375 5.164062 -2.050781 Z M 5.164062 -2.050781 "/></g></g></g><g fill="#ffffff" fill-opacity="1"><g transform="translate(87.181325, 139.101798)"><g><path d="M 1.320312 -4.5625 L 4.800781 0.382812 L 4.800781 -6.195312 L 4.164062 -6.195312 L 4.164062 -1.640625 L 0.683594 -6.585938 L 0.683594 0 L 1.320312 0 Z M 1.320312 -4.5625 "/></g></g></g><g fill="#ffffff" fill-opacity="1"><g transform="translate(94.066802, 139.101798)"><g><path d="M 0.183594 -5.621094 L 1.683594 -5.621094 L 1.683594 -0.0195312 L 2.324219 -0.0195312 L 2.324219 -5.621094 L 3.824219 -5.621094 L 3.824219 -6.210938 L 0.183594 -6.210938 Z M 0.183594 -5.621094 "/></g></g></g><g fill="#ffffff" fill-opacity="1"><g transform="translate(99.476891, 139.101798)"><g><path d="M 1.683594 -2.277344 L 2.8125 -5.128906 L 3.933594 -2.277344 Z M 5.527344 0 L 2.8125 -6.621094 L 0.0898438 0 L 0.785156 0 L 1.449219 -1.683594 L 4.171875 -1.683594 L 4.835938 0 Z M 5.527344 0 "/></g></g></g><g fill="#ffffff" fill-opacity="1"><g transform="translate(106.498973, 139.101798)"><g><path d="M 2.394531 -2.914062 C 3.195312 -2.722656 3.742188 -2.515625 4.035156 -2.277344 C 4.234375 -2.113281 4.335938 -1.902344 4.335938 -1.648438 C 4.335938 -1.394531 4.28125 -1.183594 4.171875 -1.039062 C 3.898438 -0.65625 3.40625 -0.464844 2.714844 -0.464844 C 1.75 -0.464844 1.203125 -0.792969 1.082031 -1.449219 L 0.335938 -1.449219 C 0.554688 -0.402344 1.347656 0.117188 2.714844 0.117188 C 3.324219 0.117188 3.835938 -0.0078125 4.246094 -0.28125 C 4.734375 -0.601562 4.992188 -1.074219 4.992188 -1.695312 C 4.992188 -2.203125 4.789062 -2.597656 4.390625 -2.867188 C 4.109375 -3.070312 3.652344 -3.25 3.023438 -3.414062 C 2.386719 -3.578125 1.976562 -3.714844 1.785156 -3.816406 C 1.367188 -4.027344 1.15625 -4.316406 1.164062 -4.699219 C 1.164062 -4.898438 1.203125 -5.074219 1.292969 -5.199219 C 1.53125 -5.554688 1.949219 -5.738281 2.550781 -5.738281 C 3.398438 -5.738281 3.878906 -5.464844 4.007812 -4.9375 L 4.699219 -4.9375 C 4.472656 -5.828125 3.753906 -6.285156 2.550781 -6.285156 C 2.003906 -6.285156 1.519531 -6.140625 1.121094 -5.847656 C 0.710938 -5.554688 0.5 -5.128906 0.5 -4.546875 C 0.5 -3.753906 1.136719 -3.207031 2.394531 -2.914062 Z M 2.394531 -2.914062 "/></g></g></g><g fill="#ffffff" fill-opacity="1"><g transform="translate(113.129439, 139.101798)"><g/></g></g><g fill="#ffffff" fill-opacity="1"><g transform="translate(116.991282, 139.101798)"><g><path d="M 6.367188 -1.894531 L 5.664062 -1.894531 C 5.445312 -1.492188 5.144531 -1.164062 4.761719 -0.929688 C 4.382812 -0.683594 3.953125 -0.566406 3.496094 -0.566406 C 2.8125 -0.566406 2.230469 -0.8125 1.75 -1.320312 C 1.273438 -1.804688 1.046875 -2.394531 1.046875 -3.085938 C 1.046875 -3.78125 1.273438 -4.371094 1.75 -4.863281 C 1.96875 -5.089844 2.230469 -5.273438 2.53125 -5.410156 C 2.824219 -5.546875 3.113281 -5.621094 3.40625 -5.621094 C 3.6875 -5.621094 3.933594 -5.582031 4.152344 -5.519531 C 4.816406 -5.320312 5.320312 -4.917969 5.65625 -4.308594 L 6.359375 -4.308594 C 6.121094 -4.890625 5.746094 -5.363281 5.226562 -5.730469 C 4.699219 -6.09375 4.125 -6.277344 3.496094 -6.277344 C 2.632812 -6.277344 1.902344 -5.957031 1.300781 -5.328125 C 1.019531 -5.035156 0.800781 -4.691406 0.648438 -4.308594 C 0.484375 -3.925781 0.410156 -3.515625 0.410156 -3.085938 C 0.410156 -2.214844 0.703125 -1.476562 1.300781 -0.855469 C 1.902344 -0.21875 2.632812 0.0898438 3.496094 0.0898438 C 4.125 0.0898438 4.699219 -0.0898438 5.238281 -0.457031 C 5.757812 -0.820312 6.128906 -1.292969 6.367188 -1.894531 Z M 6.367188 -1.894531 "/></g></g></g><g fill="#ffffff" fill-opacity="1"><g transform="translate(125.033387, 139.101798)"><g><path d="M 1.320312 -3.058594 L 1.320312 -5.582031 L 2.757812 -5.582031 C 3.132812 -5.582031 3.433594 -5.464844 3.660156 -5.226562 C 3.878906 -4.992188 4 -4.699219 4 -4.335938 C 4 -3.972656 3.878906 -3.671875 3.644531 -3.425781 C 3.40625 -3.179688 3.113281 -3.058594 2.757812 -3.058594 Z M 4.636719 -4.328125 C 4.636719 -4.855469 4.4375 -5.308594 4.054688 -5.664062 C 3.679688 -6.011719 3.214844 -6.195312 2.667969 -6.195312 L 0.683594 -6.195312 L 0.683594 0 L 1.320312 0 L 1.320312 -2.449219 L 2.058594 -2.449219 L 3.878906 0 L 4.734375 0 L 2.824219 -2.449219 C 3.304688 -2.476562 3.714844 -2.652344 4.054688 -2.96875 C 4.4375 -3.324219 4.636719 -3.78125 4.636719 -4.328125 Z M 4.636719 -4.328125 "/></g></g></g><g fill="#ffffff" fill-opacity="1"><g transform="translate(131.390639, 139.101798)"><g><path d="M 4.363281 0 L 4.363281 -0.59375 L 1.320312 -0.59375 L 1.320312 -2.796875 L 4.273438 -2.796875 L 4.273438 -3.398438 L 1.320312 -3.398438 L 1.320312 -5.601562 L 4.363281 -5.601562 L 4.363281 -6.195312 L 0.683594 -6.195312 L 0.683594 0 Z M 4.363281 0 "/></g></g></g><g fill="#ffffff" fill-opacity="1"><g transform="translate(137.838961, 139.101798)"><g><path d="M 6.367188 -1.894531 L 5.664062 -1.894531 C 5.445312 -1.492188 5.144531 -1.164062 4.761719 -0.929688 C 4.382812 -0.683594 3.953125 -0.566406 3.496094 -0.566406 C 2.8125 -0.566406 2.230469 -0.8125 1.75 -1.320312 C 1.273438 -1.804688 1.046875 -2.394531 1.046875 -3.085938 C 1.046875 -3.78125 1.273438 -4.371094 1.75 -4.863281 C 1.96875 -5.089844 2.230469 -5.273438 2.53125 -5.410156 C 2.824219 -5.546875 3.113281 -5.621094 3.40625 -5.621094 C 3.6875 -5.621094 3.933594 -5.582031 4.152344 -5.519531 C 4.816406 -5.320312 5.320312 -4.917969 5.65625 -4.308594 L 6.359375 -4.308594 C 6.121094 -4.890625 5.746094 -5.363281 5.226562 -5.730469 C 4.699219 -6.09375 4.125 -6.277344 3.496094 -6.277344 C 2.632812 -6.277344 1.902344 -5.957031 1.300781 -5.328125 C 1.019531 -5.035156 0.800781 -4.691406 0.648438 -4.308594 C 0.484375 -3.925781 0.410156 -3.515625 0.410156 -3.085938 C 0.410156 -2.214844 0.703125 -1.476562 1.300781 -0.855469 C 1.902344 -0.21875 2.632812 0.0898438 3.496094 0.0898438 C 4.125 0.0898438 4.699219 -0.0898438 5.238281 -0.457031 C 5.757812 -0.820312 6.128906 -1.292969 6.367188 -1.894531 Z M 6.367188 -1.894531 "/></g></g></g><g fill="#ffffff" fill-opacity="1"><g transform="translate(145.881066, 139.101798)"><g><path d="M 4.363281 0 L 4.363281 -0.59375 L 1.320312 -0.59375 L 1.320312 -2.796875 L 4.273438 -2.796875 L 4.273438 -3.398438 L 1.320312 -3.398438 L 1.320312 -5.601562 L 4.363281 -5.601562 L 4.363281 -6.195312 L 0.683594 -6.195312 L 0.683594 0 Z M 4.363281 0 "/></g></g></g><g fill="#ffffff" fill-opacity="1"><g transform="translate(152.329387, 139.101798)"><g><path d="M 6.394531 0 L 7.039062 0 L 5.601562 -6.601562 L 3.570312 -1.300781 L 1.539062 -6.601562 L 0.0898438 0 L 0.746094 0 L 1.703125 -4.410156 L 3.570312 0.363281 L 5.429688 -4.410156 Z M 6.394531 0 "/></g></g></g><g fill="#ffffff" fill-opacity="1"><g transform="translate(160.863286, 139.101798)"><g><path d="M 6.140625 -3.113281 C 6.140625 -2.40625 5.882812 -1.804688 5.390625 -1.3125 C 4.890625 -0.8125 4.289062 -0.566406 3.589844 -0.566406 C 2.886719 -0.566406 2.285156 -0.8125 1.792969 -1.3125 C 1.292969 -1.804688 1.046875 -2.40625 1.046875 -3.113281 C 1.046875 -3.808594 1.292969 -4.410156 1.792969 -4.910156 C 2.285156 -5.402344 2.886719 -5.65625 3.589844 -5.65625 C 4.289062 -5.65625 4.890625 -5.402344 5.390625 -4.910156 C 5.882812 -4.410156 6.140625 -3.808594 6.140625 -3.113281 Z M 6.777344 -3.113281 C 6.777344 -3.550781 6.683594 -3.960938 6.519531 -4.355469 C 6.359375 -4.734375 6.128906 -5.074219 5.839844 -5.363281 C 5.546875 -5.648438 5.210938 -5.875 4.828125 -6.039062 C 4.4375 -6.203125 4.027344 -6.292969 3.589844 -6.292969 C 3.152344 -6.292969 2.734375 -6.203125 2.351562 -6.039062 C 1.96875 -5.875 1.628906 -5.648438 1.339844 -5.363281 C 1.046875 -5.074219 0.820312 -4.734375 0.65625 -4.355469 C 0.492188 -3.960938 0.410156 -3.550781 0.410156 -3.113281 C 0.410156 -2.679688 0.492188 -2.257812 0.65625 -1.875 C 0.820312 -1.484375 1.046875 -1.148438 1.339844 -0.855469 C 1.628906 -0.566406 1.96875 -0.335938 2.351562 -0.171875 C 2.734375 -0.0078125 3.152344 0.0742188 3.589844 0.0742188 C 4.027344 0.0742188 4.4375 -0.0078125 4.828125 -0.171875 C 5.210938 -0.335938 5.546875 -0.566406 5.839844 -0.855469 C 6.128906 -1.148438 6.359375 -1.484375 6.519531 -1.875 C 6.683594 -2.257812 6.777344 -2.679688 6.777344 -3.113281 Z M 6.777344 -3.113281 "/></g></g></g><g fill="#ffffff" fill-opacity="1"><g transform="translate(169.45183, 139.101798)"><g><path d="M 2.394531 -2.914062 C 3.195312 -2.722656 3.742188 -2.515625 4.035156 -2.277344 C 4.234375 -2.113281 4.335938 -1.902344 4.335938 -1.648438 C 4.335938 -1.394531 4.28125 -1.183594 4.171875 -1.039062 C 3.898438 -0.65625 3.40625 -0.464844 2.714844 -0.464844 C 1.75 -0.464844 1.203125 -0.792969 1.082031 -1.449219 L 0.335938 -1.449219 C 0.554688 -0.402344 1.347656 0.117188 2.714844 0.117188 C 3.324219 0.117188 3.835938 -0.0078125 4.246094 -0.28125 C 4.734375 -0.601562 4.992188 -1.074219 4.992188 -1.695312 C 4.992188 -2.203125 4.789062 -2.597656 4.390625 -2.867188 C 4.109375 -3.070312 3.652344 -3.25 3.023438 -3.414062 C 2.386719 -3.578125 1.976562 -3.714844 1.785156 -3.816406 C 1.367188 -4.027344 1.15625 -4.316406 1.164062 -4.699219 C 1.164062 -4.898438 1.203125 -5.074219 1.292969 -5.199219 C 1.53125 -5.554688 1.949219 -5.738281 2.550781 -5.738281 C 3.398438 -5.738281 3.878906 -5.464844 4.007812 -4.9375 L 4.699219 -4.9375 C 4.472656 -5.828125 3.753906 -6.285156 2.550781 -6.285156 C 2.003906 -6.285156 1.519531 -6.140625 1.121094 -5.847656 C 0.710938 -5.554688 0.5 -5.128906 0.5 -4.546875 C 0.5 -3.753906 1.136719 -3.207031 2.394531 -2.914062 Z M 2.394531 -2.914062 "/></g></g></g><g fill="#ffffff" fill-opacity="1"><g transform="translate(75.34113, 127.212951)"><g><path d="M 9.234375 0.46875 C 7.753906 0.46875 6.363281 0.132812 5.0625 -0.53125 C 4.476562 -0.820312 3.988281 -1.164062 3.59375 -1.5625 C 3.300781 -1.082031 2.9375 -0.65625 2.5 -0.28125 C 2.125 -0.0078125 1.914062 0.132812 1.875 0.15625 L 1.09375 0.15625 L 1.09375 -5.796875 L 2.34375 -5.796875 C 2.65625 -4.765625 3.09375 -3.84375 3.65625 -3.03125 C 4.9375 -1.21875 6.585938 -0.3125 8.609375 -0.3125 C 9.796875 -0.3125 10.742188 -0.664062 11.453125 -1.375 C 12.160156 -2.082031 12.515625 -3.03125 12.515625 -4.21875 C 12.515625 -4.914062 12.3125 -5.535156 11.90625 -6.078125 C 11.5 -6.617188 10.992188 -7.097656 10.390625 -7.515625 C 9.785156 -7.929688 8.941406 -8.453125 7.859375 -9.078125 C 6.484375 -9.847656 5.363281 -10.546875 4.5 -11.171875 C 3.644531 -11.796875 2.914062 -12.582031 2.3125 -13.53125 C 1.707031 -14.476562 1.40625 -15.601562 1.40625 -16.90625 C 1.40625 -17.925781 1.691406 -18.847656 2.265625 -19.671875 C 2.835938 -20.492188 3.695312 -21.148438 4.84375 -21.640625 C 6 -22.128906 7.410156 -22.375 9.078125 -22.375 C 10.285156 -22.375 11.492188 -22.03125 12.703125 -21.34375 C 13.160156 -21.09375 13.617188 -20.757812 14.078125 -20.34375 C 14.429688 -20.882812 14.796875 -21.3125 15.171875 -21.625 C 15.554688 -21.894531 15.769531 -22.039062 15.8125 -22.0625 L 16.59375 -22.0625 L 16.59375 -16.125 L 15.328125 -16.125 C 15.054688 -17.125 14.648438 -18.03125 14.109375 -18.84375 C 13.609375 -19.632812 12.988281 -20.289062 12.25 -20.8125 C 11.507812 -21.332031 10.660156 -21.59375 9.703125 -21.59375 C 8.890625 -21.59375 8.191406 -21.269531 7.609375 -20.625 C 7.023438 -19.976562 6.734375 -19.15625 6.734375 -18.15625 C 6.734375 -17.382812 6.957031 -16.6875 7.40625 -16.0625 C 7.851562 -15.445312 8.40625 -14.910156 9.0625 -14.453125 C 9.71875 -13.992188 10.609375 -13.441406 11.734375 -12.796875 C 13.046875 -12.046875 14.109375 -11.378906 14.921875 -10.796875 C 15.742188 -10.210938 16.4375 -9.488281 17 -8.625 C 17.5625 -7.757812 17.84375 -6.765625 17.84375 -5.640625 C 17.84375 -4.503906 17.519531 -3.472656 16.875 -2.546875 C 16.226562 -1.617188 15.253906 -0.882812 13.953125 -0.34375 C 12.660156 0.195312 11.085938 0.46875 9.234375 0.46875 Z M 9.234375 0.46875 "/></g></g></g><g fill="#ffffff" fill-opacity="1"><g transform="translate(93.966584, 127.212951)"><g><path d="M 9.546875 0.46875 C 6.960938 0.46875 4.929688 -0.265625 3.453125 -1.734375 C 1.984375 -3.203125 1.25 -5.234375 1.25 -7.828125 C 1.25 -10.410156 1.984375 -12.4375 3.453125 -13.90625 C 4.929688 -15.382812 6.960938 -16.125 9.546875 -16.125 C 12.128906 -16.125 14.15625 -15.382812 15.625 -13.90625 C 17.101562 -12.4375 17.84375 -10.410156 17.84375 -7.828125 C 17.84375 -5.234375 17.101562 -3.203125 15.625 -1.734375 C 14.15625 -0.265625 12.128906 0.46875 9.546875 0.46875 Z M 9.546875 -0.15625 C 10.378906 -0.15625 11.082031 -0.738281 11.65625 -1.90625 C 12.226562 -3.070312 12.515625 -5.046875 12.515625 -7.828125 C 12.515625 -10.597656 12.226562 -12.566406 11.65625 -13.734375 C 11.082031 -14.898438 10.378906 -15.484375 9.546875 -15.484375 C 8.710938 -15.484375 8.007812 -14.898438 7.4375 -13.734375 C 6.863281 -12.566406 6.578125 -10.597656 6.578125 -7.828125 C 6.578125 -5.046875 6.863281 -3.070312 7.4375 -1.90625 C 8.007812 -0.738281 8.710938 -0.15625 9.546875 -0.15625 Z M 9.546875 -0.15625 "/></g></g></g><g fill="#ffffff" fill-opacity="1"><g transform="translate(113.061581, 127.212951)"><g><path d="M 9.703125 0.46875 C 7.035156 0.46875 4.957031 -0.265625 3.46875 -1.734375 C 1.988281 -3.203125 1.25 -5.234375 1.25 -7.828125 C 1.25 -10.410156 1.988281 -12.4375 3.46875 -13.90625 C 4.957031 -15.382812 7.035156 -16.125 9.703125 -16.125 C 11.617188 -16.125 13.0625 -15.785156 14.03125 -15.109375 C 15 -14.441406 15.484375 -13.628906 15.484375 -12.671875 C 15.484375 -11.960938 15.269531 -11.394531 14.84375 -10.96875 C 14.414062 -10.539062 13.847656 -10.328125 13.140625 -10.328125 C 12.847656 -10.328125 12.554688 -10.347656 12.265625 -10.390625 L 11.890625 -10.484375 L 11.890625 -15.171875 L 11.453125 -15.328125 C 11.140625 -15.429688 10.765625 -15.484375 10.328125 -15.484375 C 9.140625 -15.484375 8.21875 -14.921875 7.5625 -13.796875 C 6.90625 -12.671875 6.578125 -10.679688 6.578125 -7.828125 C 6.578125 -5.046875 6.90625 -3.097656 7.5625 -1.984375 C 8.21875 -0.867188 9.140625 -0.3125 10.328125 -0.3125 C 11.140625 -0.3125 11.894531 -0.503906 12.59375 -0.890625 C 13.289062 -1.273438 13.84375 -1.785156 14.25 -2.421875 C 14.65625 -3.054688 14.859375 -3.707031 14.859375 -4.375 L 15.65625 -4.375 C 15.65625 -3.539062 15.398438 -2.75 14.890625 -2 C 14.390625 -1.25 13.691406 -0.648438 12.796875 -0.203125 C 11.898438 0.242188 10.867188 0.46875 9.703125 0.46875 Z M 9.703125 0.46875 "/></g></g></g><g fill="#ffffff" fill-opacity="1"><g transform="translate(129.652314, 127.212951)"><g><path d="M 1.25 -0.46875 L 3.125 -0.9375 L 3.125 -14.703125 L 1.25 -15.171875 L 1.25 -15.65625 L 5.328125 -15.65625 C 7.203125 -15.65625 8.140625 -14.710938 8.140625 -12.828125 L 8.140625 -0.9375 L 10.015625 -0.46875 L 10.015625 0 L 1.25 0 Z M 5.328125 -17.53125 C 4.703125 -17.53125 4.179688 -17.738281 3.765625 -18.15625 C 3.347656 -18.570312 3.140625 -19.09375 3.140625 -19.71875 C 3.140625 -20.34375 3.347656 -20.863281 3.765625 -21.28125 C 4.179688 -21.695312 4.703125 -21.90625 5.328125 -21.90625 C 5.953125 -21.90625 6.472656 -21.695312 6.890625 -21.28125 C 7.304688 -20.863281 7.515625 -20.34375 7.515625 -19.71875 C 7.515625 -19.09375 7.304688 -18.570312 6.890625 -18.15625 C 6.472656 -17.738281 5.953125 -17.53125 5.328125 -17.53125 Z M 5.328125 -17.53125 "/></g></g></g><g fill="#ffffff" fill-opacity="1"><g transform="translate(140.295429, 127.212951)"><g><path d="M 7.359375 0.46875 C 5.492188 0.46875 4.0625 0.0703125 3.0625 -0.71875 C 2.0625 -1.507812 1.5625 -2.519531 1.5625 -3.75 C 1.5625 -4.5625 1.738281 -5.367188 2.09375 -6.171875 C 2.238281 -6.546875 2.425781 -6.890625 2.65625 -7.203125 C 3.507812 -7.410156 4.441406 -7.597656 5.453125 -7.765625 C 7.703125 -8.140625 9.691406 -8.367188 11.421875 -8.453125 L 11.421875 -9.390625 C 11.421875 -11.703125 11.140625 -13.296875 10.578125 -14.171875 C 10.015625 -15.046875 9.148438 -15.484375 7.984375 -15.484375 C 7.546875 -15.484375 7.171875 -15.429688 6.859375 -15.328125 L 6.421875 -15.171875 L 6.421875 -10.484375 L 6.015625 -10.390625 C 5.679688 -10.347656 5.394531 -10.328125 5.15625 -10.328125 C 4.445312 -10.328125 3.878906 -10.539062 3.453125 -10.96875 C 3.023438 -11.394531 2.8125 -11.960938 2.8125 -12.671875 C 2.8125 -13.628906 3.296875 -14.441406 4.265625 -15.109375 C 5.242188 -15.785156 6.691406 -16.125 8.609375 -16.125 C 10.234375 -16.125 11.632812 -15.832031 12.8125 -15.25 C 13.988281 -14.675781 14.882812 -13.882812 15.5 -12.875 C 16.125 -11.863281 16.4375 -10.703125 16.4375 -9.390625 L 16.4375 -0.9375 L 18.3125 -0.46875 L 18.3125 0 L 15.484375 0 C 14.234375 0 13.265625 -0.382812 12.578125 -1.15625 C 12.285156 -1.46875 12.054688 -1.863281 11.890625 -2.34375 C 11.597656 -1.820312 11.253906 -1.351562 10.859375 -0.9375 C 9.921875 0 8.753906 0.46875 7.359375 0.46875 Z M 8.609375 -0.625 C 9.378906 -0.625 10.078125 -1.039062 10.703125 -1.875 C 10.929688 -2.1875 11.171875 -2.601562 11.421875 -3.125 L 11.421875 -7.671875 C 10.460938 -7.671875 9.546875 -7.617188 8.671875 -7.515625 C 8.023438 -7.429688 7.585938 -7.378906 7.359375 -7.359375 C 7.253906 -7.128906 7.148438 -6.816406 7.046875 -6.421875 C 6.835938 -5.628906 6.734375 -4.84375 6.734375 -4.0625 C 6.734375 -2.894531 6.910156 -2.03125 7.265625 -1.46875 C 7.617188 -0.90625 8.066406 -0.625 8.609375 -0.625 Z M 8.609375 -0.625 "/></g></g></g></svg>